<svg height="24" viewBox="0 0 4478 800" fill="none" xmlns="http://www.w3.org/2000/svg"><path d="M0 158C0 70.739 70.739 0 158 0H246V636H0V158Z" fill="#fff"></path><path d="M570 158C570 70.739 499.261 0 412 0H324V636H570V158Z" fill="#fff"></path><path d="M927 636C889.403 636 855.656 626.49 825 608C794.344 588.932 769.931 563.358 752 531C734.647 498.642 726 462.448 726 422C726 381.552 734.647 345.358 752 313C769.931 280.642 793.922 255.068 824 236C854.656 216.932 888.824 207 927 207C958.235 207 986.706 213.71 1011 227C1035.87 239.712 1054.96 257.887 1070 281C1085.04 303.535 1094.26 329.953 1096 360V484C1094.26 513.469 1085.04 539.887 1070 563C1055.54 586.113 1035.87 603.71 1011 617C986.706 629.712 958.813 636 927 636ZM928 563C966.754 563 998.285 550.002 1022 524C1045.72 497.42 1058 463.026 1058 422C1058 393.687 1051.99 368.802 1041 348C1030.59 326.62 1015.67 310.557 996 299C976.334 286.866 953.029 281 927 281C900.971 281 878.245 286.866 858 299C838.334 311.134 822.568 327.62 811 349C800.01 369.802 795 393.842 795 421C795 448.736 800.01 473.62 811 495C822.568 515.802 838.755 531.866 859 544C879.245 556.134 901.971 563 928 563ZM1064 636V517L1079 416L1064 316V207H1143V636H1064Z" fill="#fff"></path><path d="M1474 636C1442.77 636 1414.45 629.712 1389 617C1364.13 603.71 1344.04 586.113 1329 563C1313.96 539.887 1305.74 513.469 1304 484V360C1305.74 329.953 1313.96 303.535 1329 281C1344.62 257.887 1365.13 239.712 1390 227C1415.45 213.71 1443.34 207 1474 207C1511.6 207 1544.92 216.932 1575 236C1605.66 255.068 1629.65 280.642 1647 313C1664.35 345.358 1673 381.552 1673 422C1673 462.448 1664.35 498.642 1647 531C1629.65 563.358 1605.66 588.932 1575 608C1544.92 626.49 1511.6 636 1474 636ZM1257 800V207H1335V324L1320 424L1335 524V800H1257ZM1473 563C1499.03 563 1521.33 556.134 1541 544C1560.67 531.866 1576.43 515.802 1588 495C1599.57 473.62 1606 448.736 1606 421C1606 393.842 1599.57 369.38 1588 348C1576.43 326.62 1560.67 310.557 1541 299C1521.33 286.866 1499.45 281 1474 281C1447.97 281 1424.67 286.866 1405 299C1385.33 310.557 1369.99 326.62 1359 348C1348.01 369.38 1343 394.264 1343 422C1343 449.158 1347.59 473.62 1358 495C1368.99 515.802 1384.33 531.866 1404 544C1424.24 556.134 1447.55 563 1473 563Z" fill="#fff"></path><path d="M1979 636C1947.77 636 1919.45 629.712 1894 617C1869.13 603.71 1849.04 586.113 1834 563C1818.96 539.887 1810.74 513.469 1809 484V360C1810.74 329.953 1818.96 303.535 1834 281C1849.62 257.887 1870.13 239.712 1895 227C1920.45 213.71 1948.34 207 1979 207C2016.6 207 2049.92 216.932 2080 236C2110.66 255.068 2134.65 280.642 2152 313C2169.35 345.358 2178 381.552 2178 422C2178 462.448 2169.35 498.642 2152 531C2134.65 563.358 2110.66 588.932 2080 608C2049.92 626.49 2016.6 636 1979 636ZM1762 800V207H1840V324L1825 424L1840 524V800H1762ZM1978 563C2004.03 563 2026.33 556.134 2046 544C2065.67 531.866 2081.43 515.802 2093 495C2104.57 473.62 2111 448.736 2111 421C2111 393.842 2104.57 369.38 2093 348C2081.43 326.62 2065.67 310.557 2046 299C2026.33 286.866 2004.45 281 1979 281C1952.97 281 1929.67 286.866 1910 299C1890.33 310.557 1874.99 326.62 1864 348C1853.01 369.38 1848 394.264 1848 422C1848 449.158 1852.59 473.62 1863 495C1873.99 515.802 1889.33 531.866 1909 544C1929.24 556.134 1952.55 563 1978 563Z" fill="#fff"></path><path d="M2313 636V160C2313 131.109 2319.7 105.269 2333 81C2346.3 56.7313 2365.13 37.4456 2390 23C2415.45 7.97651 2445.03 0 2478 0V73C2449.66 73 2428.04 81.6652 2413 99C2398.54 115.757 2391 135.731 2391 160V636H2313ZM2212 278V207H2591V278H2212ZM2559 636V0H2637V636H2559Z" fill="#fff"></path><path d="M2943 636C2901.93 636 2863.97 626.49 2831 608C2798.03 588.932 2772.09 563.358 2753 531C2733.91 498.642 2725 462.026 2725 421C2725 380.552 2734.49 344.358 2753 312C2772.09 279.642 2797.19 254.49 2829 236C2861.39 216.932 2897.09 207 2937 207C2975.18 207 3009.08 215.665 3038 233C3067.5 250.335 3089.8 274.375 3106 305C3122.77 335.625 3132 370.286 3132 409C3132 414.778 3131.58 421.066 3131 428C3130.42 434.356 3128.74 442.333 3127 451H2779V386H3086L3057 411C3057 383.264 3051.83 360.068 3042 341C3032.17 321.354 3018.93 306.401 3001 296C2983.07 285.021 2961.45 279 2936 279C2909.39 279 2885.24 284.443 2865 296C2844.76 307.557 2828.99 324.198 2818 345C2807.01 365.802 2802 390.687 2802 419C2802 447.891 2807.43 473.043 2819 495C2830.57 516.38 2847.6 532.866 2869 545C2890.4 556.557 2915.24 563 2943 563C2966.14 563 2986.91 558.09 3006 550C3025.67 541.91 3042.12 530.179 3056 514L3106 565C3086.33 588.113 3062.92 605.866 3034 618C3005.66 630.134 2975.39 636 2943 636Z" fill="#fff"></path><path d="M3408 636C3366.93 636 3329.97 626.49 3297 608C3264.03 588.932 3238.09 563.358 3219 531C3199.91 498.642 3190 462.026 3190 421C3190 380.552 3199.49 344.358 3218 312C3237.09 279.642 3262.19 254.49 3294 236C3326.39 216.932 3362.09 207 3402 207C3440.18 207 3474.08 215.665 3503 233C3532.5 250.335 3555.8 274.375 3572 305C3588.77 335.625 3597 370.286 3597 409C3597 414.778 3596.58 421.066 3596 428C3595.42 434.356 3593.74 442.333 3592 451H3245V386H3551L3522 411C3522 383.264 3516.83 360.068 3507 341C3497.17 321.354 3483.93 306.401 3466 296C3448.07 285.021 3426.45 279 3401 279C3374.39 279 3350.24 284.443 3330 296C3309.76 307.557 3294.99 324.198 3284 345C3273.01 365.802 3267 390.687 3267 419C3267 447.891 3272.43 473.043 3284 495C3295.57 516.38 3312.6 532.866 3334 545C3355.4 556.557 3380.24 563 3408 563C3431.14 563 3451.91 558.09 3471 550C3490.67 541.91 3507.12 530.179 3521 514L3572 565C3552.33 588.113 3527.92 605.866 3499 618C3470.66 630.134 3440.39 636 3408 636Z" fill="#fff"></path><path d="M3870 636C3829.51 636 3792.97 627.068 3760 608C3727.61 588.932 3702.09 562.358 3683 530C3664.49 497.064 3655 460.87 3655 421C3655 380.552 3664.49 344.358 3683 312C3702.09 279.642 3727.61 254.49 3760 236C3792.97 216.932 3829.51 207 3870 207C3901.81 207 3931.81 212.866 3959 225C3986.19 236.557 4009.33 253.465 4029 276L3977 328C3964.27 312.977 3948.51 302.512 3930 295C3912.07 286.91 3891.98 283 3870 283C3843.97 283 3821.24 288.866 3801 301C3780.76 312.557 3764.57 328.198 3753 349C3741.43 369.802 3736 393.842 3736 421C3736 448.158 3741.43 472.198 3753 493C3764.57 513.802 3780.76 530.866 3801 543C3821.24 555.134 3843.97 561 3870 561C3891.98 561 3912.07 557.512 3930 550C3948.51 541.91 3964.7 530.023 3978 515L4029 567C4009.91 588.957 3986.76 605.866 3959 618C3931.81 630.134 3901.81 636 3870 636Z" fill="#fff"></path><path d="M4289 636C4247.93 636 4210.97 626.49 4178 608C4145.03 588.932 4119.09 563.358 4100 531C4080.91 498.642 4071 462.026 4071 421C4071 380.552 4080.49 344.358 4099 312C4118.09 279.642 4143.19 254.49 4175 236C4207.39 216.932 4244.09 207 4284 207C4322.18 207 4355.08 215.665 4384 233C4413.5 250.335 4436.8 274.375 4453 305C4469.77 335.625 4478 370.286 4478 409C4478 414.778 4477.58 421.066 4477 428C4476.42 434.356 4475.74 442.333 4474 451H4126V386H4432L4403 411C4403 383.264 4398.83 360.068 4389 341C4379.17 321.354 4364.93 306.401 4347 296C4329.07 285.021 4307.45 279 4282 279C4255.39 279 4232.24 284.443 4212 296C4191.76 307.557 4175.99 324.198 4165 345C4154.01 365.802 4148 390.687 4148 419C4148 447.891 4154.43 473.043 4166 495C4177.57 516.38 4193.6 532.866 4215 545C4236.4 556.557 4261.24 563 4289 563C4312.14 563 4332.91 558.09 4352 550C4371.67 541.91 4389.12 530.179 4403 514L4453 565C4433.33 588.113 4408.92 605.866 4380 618C4351.66 630.134 4321.39 636 4289 636Z" fill="#fff"></path></svg>
