<svg xmlns="http://www.w3.org/2000/svg" fill="none" viewBox="0 0 726 216" height="216" width="726">
<path fill="#7065A2" d="M48.0202 37.3298L2.3102 1.50977H0.950195V97.7398H22.5102V42.1698L47.3602 63.2098H47.9002L72.4702 42.1598V97.7398H94.0402V1.50977H92.6702L48.0202 37.3298Z"></path>
<path fill="#7065A2" d="M183.03 65.32C180.66 69.55 177.38 72.9 173.2 75.35C169.01 77.81 164.15 79.0399 158.6 79.0399C153.05 79.0399 148.43 77.81 144.2 75.35C139.97 72.89 136.65 69.55 134.24 65.32C131.83 61.09 130.62 56.1999 130.62 50.6499C130.62 45.0999 131.83 40.09 134.24 35.91C136.65 31.72 139.97 28.4 144.2 25.95C148.43 23.49 153.23 22.2599 158.6 22.2599C163.97 22.2599 169.02 23.49 173.2 25.95C177.38 28.41 180.66 31.73 183.03 35.91C185.39 40.1 186.58 45.0099 186.58 50.6499C186.58 56.2899 185.4 61.09 183.03 65.32ZM195.18 14.82C190.63 10.41 185.28 6.98996 179.14 4.57996C173 2.16996 166.15 0.959961 158.6 0.959961C151.05 0.959961 144.31 2.16996 138.13 4.57996C131.94 6.98996 126.59 10.4 122.09 14.82C117.58 19.23 114.1 24.49 111.65 30.59C109.19 36.69 107.96 43.38 107.96 50.66C107.96 57.94 109.19 64.63 111.65 70.7299C114.11 76.8299 117.59 82.08 122.09 86.49C126.59 90.91 131.94 94.3199 138.13 96.7299C144.32 99.14 151.14 100.35 158.6 100.35C166.06 100.35 173 99.14 179.14 96.7299C185.28 94.3199 190.63 90.91 195.18 86.49C199.73 82.08 203.23 76.82 205.69 70.7299C208.15 64.63 209.38 57.94 209.38 50.66C209.38 43.38 208.15 36.69 205.69 30.59C203.23 24.49 199.73 19.24 195.18 14.82Z"></path>
<path fill="#7065A2" d="M245.14 3.56055H223.3V215.791H286.5V195.731H245.14V3.56055Z"></path>
<path fill="#7065A2" d="M283.32 65.2905H320.1V65.1205H320.17V46.4205H283.32V23.8006H315.18V23.6205H315.26V3.56055H261.62V3.73055H261.54V97.9205H327.33V97.7406H327.41V77.6705H283.32V65.2905Z"></path>
<path fill="#7065A2" d="M320.08 120.689H298.24V214.869H320.08V120.689Z"></path>
<path fill="#7065A2" d="M359.26 140.749H392.43V120.689H337.42V214.869H359.26V184.839H397.2V165.319H359.26V140.749Z"></path>
<path fill="#7065A2" d="M432.69 182.239H469.54V163.549H432.69V140.749H464.63V120.689H410.99V214.869H476.78V194.799H432.69V182.239Z"></path>
<path fill="#7065A2" d="M164.331 168.09C162.711 171.02 160.461 173.28 157.591 174.88C154.721 176.48 151.401 177.27 147.641 177.27C143.881 177.27 140.671 176.47 137.801 174.88C134.931 173.29 132.681 171.02 131.061 168.09C129.431 165.15 128.621 161.74 128.621 157.86C128.621 153.98 129.431 150.56 131.061 147.63C132.681 144.7 134.931 142.42 137.801 140.8C140.671 139.17 143.951 138.36 147.641 138.36C151.331 138.36 154.721 139.17 157.591 140.8C160.461 142.42 162.711 144.7 164.331 147.63C165.961 150.57 166.771 153.98 166.771 157.86C166.771 161.74 165.961 165.16 164.331 168.09ZM159.451 137.92C156.041 135.97 152.101 135 147.641 135C143.181 135 139.331 135.97 135.891 137.92C132.441 139.87 129.751 142.54 127.811 145.95C125.861 149.37 124.891 153.33 124.891 157.86C124.891 162.39 125.861 166.18 127.811 169.62C129.761 173.06 132.441 175.77 135.891 177.75C139.331 179.72 143.251 180.71 147.641 180.71C152.031 180.71 156.041 179.72 159.451 177.75C162.861 175.77 165.541 173.06 167.481 169.62C169.421 166.18 170.401 162.26 170.401 157.86C170.401 153.46 169.431 149.37 167.481 145.95C165.531 142.54 162.861 139.86 159.451 137.92Z"></path>
<path fill="#7065A2" d="M196.6 110.34C192.71 110.34 189.67 111.71 187.46 114.45C185.26 117.19 184.16 120.99 184.16 125.83V136.16H175.27V139.32H184.16V179.48H187.79V139.32H199.46V136.16H187.79V126.03C187.79 122.08 188.59 119.03 190.18 116.89C191.77 114.76 194.01 113.69 196.87 113.69C197.32 113.69 197.76 113.71 198.21 113.74C198.66 113.77 199.07 113.85 199.45 113.97V110.63C198.94 110.5 198.45 110.43 197.97 110.4C197.5 110.37 197.03 110.35 196.59 110.35"></path>
<path fill="#7065A2" d="M390.12 77.5804C383.75 77.5804 378.18 76.4404 373.4 74.1704C368.62 71.9004 364.89 68.6904 362.21 64.5404C359.52 60.4004 358.18 55.6004 358.18 50.1404C358.18 44.6804 359.52 40.1604 362.21 36.2804C364.89 32.4104 368.69 29.4104 373.6 27.2704C378.51 25.1304 384.24 24.0604 390.8 24.0604C392.26 24.0604 393.74 24.1304 395.24 24.2604C396.74 24.4004 397.9 24.5604 398.72 24.7404V3.7204C397.63 3.5404 396.24 3.36039 394.56 3.17039C392.87 2.99039 391.3 2.90039 389.85 2.90039C378.56 2.90039 368.74 4.8604 360.36 8.7704C351.98 12.6904 345.52 18.2104 340.98 25.3604C336.43 32.5104 334.16 40.8504 334.16 50.4104C334.16 59.9704 336.41 68.7704 340.91 76.0004C345.41 83.2404 351.71 88.8304 359.81 92.7904C367.91 96.7504 377.37 98.7304 388.2 98.7304C390.57 98.7304 392.68 98.6404 394.55 98.4604C396.41 98.2804 398.03 98.0504 399.39 97.7804V76.8904C398.57 77.0704 397.3 77.2304 395.57 77.3704C393.84 77.5104 392.02 77.5804 390.11 77.5804"></path>
<path fill="#7065A2" d="M461.1 62.7005C461.1 68.1605 459.92 72.3005 457.55 75.1205C455.18 77.9405 451.73 79.3505 447.17 79.3505C442.61 79.3505 439.18 77.9405 436.87 75.1205C434.54 72.3005 433.38 68.1605 433.38 62.7005V3.73047H411.54V64.2005C411.54 71.9405 412.9 78.5305 415.64 83.9905C418.37 89.4505 422.4 93.5705 427.72 96.3505C433.04 99.1205 439.52 100.51 447.17 100.51C454.82 100.51 461.43 99.1205 466.76 96.3505C472.08 93.5705 476.11 89.4505 478.84 83.9905C481.57 78.5305 482.94 71.9405 482.94 64.2005V3.73047H461.1V62.7005Z"></path>
<path fill="#7065A2" d="M521.29 3.73047H499.46V97.9205H562.65V77.8505H521.29V3.73047Z"></path>
<path fill="#7065A2" d="M596.36 65.2905H633.22V46.5905H596.36V23.8005H628.31V3.73047H574.66V97.9205H640.46V77.8505H596.36V65.2905Z"></path>
<path fill="#7065A2" d="M722.621 3.18993C721.351 3.00993 719.981 2.91992 718.521 2.91992C712.701 2.91992 707.621 3.93993 703.301 5.98993C698.981 8.03993 695.101 11.3999 691.701 16.0899C688.281 20.7799 684.951 27.0799 681.671 34.9999L671.571 59.8399C669.841 64.1999 668.041 67.7099 666.181 70.3499C664.311 72.9999 662.221 74.8799 659.901 76.0199C657.581 77.1599 654.921 77.7199 651.911 77.7199C650.911 77.7199 649.981 77.6599 649.121 77.5099C648.251 77.3799 647.601 77.2599 647.141 77.1699V97.6499C648.411 98.0099 649.871 98.2799 651.501 98.4699C653.141 98.6499 654.821 98.7399 656.551 98.7399C662.561 98.7399 667.701 97.7399 671.981 95.7399C676.251 93.7399 680.101 90.3699 683.511 85.6399C686.921 80.9099 690.271 74.5899 693.541 66.6699L703.641 41.8299C706.371 35.2799 709.171 30.6599 712.031 27.9699C714.901 25.2899 718.381 23.9399 722.471 23.9399C723.021 23.9399 723.581 23.9699 724.181 24.0099C724.771 24.0599 725.251 24.1199 725.611 24.2199V3.73993C724.881 3.55993 723.881 3.37993 722.611 3.18993"></path>
</svg>
